<?xml version="1.0" encoding="utf-8"?>
<!--Generator: Adobe Illustrator 16.0.0, SVG Export Plug-In . SVG Version: 6.00 Build 0)  -->
<!DOCTYPE svg PUBLIC "-//W3C//DTD SVG 1.1//EN" "http://www.w3.org/Graphics/SVG/1.1/DTD/svg11.dtd">
<svg version="1.1" id="Layer_1" xmlns="http://www.w3.org/2000/svg" xmlns:xlink="http://www.w3.org/1999/xlink" x="0px" y="0px"
	 width="288px" height="337px" viewBox="0 0 288 337" enable-background="new 0 0 288 337" xml:space="preserve">
<circle fill="#213851" cx="144.947" cy="172.875" r="119.598"/>
<g>
	<circle fill="#EEF1F4" cx="144.945" cy="145.498" r="3.64"/>
	<g>
		<g>
			<g>
				<g>
					<path fill="#3AC6F4" d="M154.855,135.922l-3.262,3.265c-3.666-3.665-9.629-3.665-13.294,0l-3.266-3.265
						C140.501,130.459,149.394,130.459,154.855,135.922z"/>
				</g>
			</g>
		</g>
		<g>
			<g>
				<g>
					<path fill="#78C589" d="M161.084,129.696l-3.266,3.264c-7.098-7.099-18.646-7.099-25.747,0l-3.262-3.264
						C137.708,120.799,152.187,120.799,161.084,129.696z"/>
				</g>
			</g>
		</g>
		<g>
			<g>
				<path fill="#FEFAEA" d="M167.253,123.527l-3.264,3.262c-10.501-10.498-27.586-10.498-38.087,0l-3.264-3.262
					C134.938,111.227,154.951,111.227,167.253,123.527z"/>
			</g>
		</g>
	</g>
</g>
<g>
	<path fill="#FFFFFF" d="M92.585,203.981h2.02v14.386h-2.02V203.981z"/>
	<path fill="#FFFFFF" d="M96.625,214.257c0-2.371,1.875-4.308,4.04-4.308c2.345,0,4.04,1.739,4.04,4.308
		c0,2.371-1.876,4.308-4.04,4.308C98.32,218.564,96.625,216.826,96.625,214.257z M102.685,214.257c0-1.304-0.829-2.252-2.02-2.252
		c-1.154,0-2.021,0.948-2.021,2.252c0,1.265,0.866,2.253,2.021,2.253C101.855,216.51,102.685,215.521,102.685,214.257z"/>
	<path fill="#FFFFFF" d="M106.221,218.446h1.912c0,1.344,0.829,2.292,2.056,2.292s2.057-1.027,2.057-2.371v-0.711
		c-0.434,0.553-1.299,0.908-2.236,0.908c-2.272,0-3.86-1.738-3.86-4.308c0-2.371,1.876-4.308,4.04-4.308
		c2.345,0,4.04,1.739,4.04,4.308v4.11c0,2.568-1.875,4.308-4.04,4.308C107.808,222.675,106.221,221.055,106.221,218.446z
		 M112.209,214.257c0-1.304-0.83-2.252-2.021-2.252c-1.154,0-2.02,0.948-2.02,2.252c0,1.265,0.865,2.253,2.02,2.253
		C111.379,216.51,112.209,215.521,112.209,214.257z"/>
	<path fill="#FFFFFF" d="M115.817,214.257c0-2.371,1.875-4.308,4.04-4.308c2.345,0,4.04,1.739,4.04,4.308v4.11h-1.984v-0.711
		c-0.469,0.553-1.299,0.908-2.236,0.908C117.404,218.564,115.817,216.826,115.817,214.257z M121.877,214.257
		c0-1.304-0.829-2.252-2.02-2.252c-1.154,0-2.021,0.948-2.021,2.252c0,1.265,0.866,2.253,2.021,2.253
		C121.048,216.51,121.877,215.521,121.877,214.257z"/>
	<path fill="#FFFFFF" d="M125.846,214.257c0-2.568,2.02-4.308,4.076-4.308c2.345,0,4.004,1.739,4.004,4.308v4.11h-2.02v-4.11
		c0-1.304-0.83-2.252-2.021-2.252c-1.154,0-2.021,0.948-2.021,2.252v4.11h-2.02V214.257z"/>
	<path fill="#FFFFFF" d="M140.312,220.422h0.18c0.541,0,0.938-0.395,0.938-1.027v-9.248h2.02v9.248c0,1.818-1.19,3.083-2.813,3.083
		h-0.324V220.422z M141.213,205.128c0-0.751,0.577-1.344,1.263-1.344s1.227,0.593,1.227,1.344s-0.541,1.383-1.227,1.383
		S141.213,205.879,141.213,205.128z"/>
	<path fill="#FFFFFF" d="M149.943,210.146h1.911l2.021,5.968l1.227-3.675l-0.794-2.293h1.804l1.804,5.968l2.02-5.968h1.912
		l-2.994,8.221h-1.731l-1.19-3.597l-1.226,3.597h-1.732L149.943,210.146z"/>
	<path fill="#FFFFFF" d="M162.533,205.128c0-0.751,0.577-1.344,1.263-1.344s1.227,0.593,1.227,1.344s-0.541,1.383-1.227,1.383
		S162.533,205.879,162.533,205.128z M162.75,210.146h2.02v8.221h-2.02V210.146z"/>
	<path fill="#FFFFFF" d="M167.295,203.981h2.02v14.386h-2.02V203.981z"/>
	<path fill="#FFFFFF" d="M171.551,216.51h5.015c0.36,0,0.612-0.276,0.612-0.672c0-0.355-0.252-0.633-0.612-0.633h-2.922
		c-1.263,0-2.309-1.106-2.309-2.529c0-1.343,1.046-2.529,2.309-2.529h4.473v1.858h-4.293c-0.324,0-0.613,0.276-0.613,0.632
		c0,0.396,0.253,0.672,0.613,0.672h2.922c1.263,0,2.309,1.067,2.309,2.529c0,1.304-1.046,2.529-2.309,2.529h-5.194V216.51z"/>
	<path fill="#FFFFFF" d="M180.426,214.257c0-2.371,1.875-4.308,4.04-4.308c2.345,0,4.04,1.739,4.04,4.308
		c0,2.371-1.876,4.308-4.04,4.308C182.121,218.564,180.426,216.826,180.426,214.257z M186.485,214.257
		c0-1.304-0.829-2.252-2.02-2.252c-1.154,0-2.021,0.948-2.021,2.252c0,1.265,0.866,2.253,2.021,2.253
		C185.656,216.51,186.485,215.521,186.485,214.257z"/>
	<path fill="#FFFFFF" d="M190.094,214.257c0-2.568,2.02-4.308,4.076-4.308c2.345,0,4.004,1.739,4.004,4.308v4.11h-2.02v-4.11
		c0-1.304-0.83-2.252-2.021-2.252c-1.154,0-2.021,0.948-2.021,2.252v4.11h-2.02V214.257z"/>
</g>
<g>
	<path fill="#78C589" d="M142.9,153.548h10.014l7.211,30.064l8.047-30.064h7.748l8.046,30.064l7.212-30.064h10.013l-11.503,42.949
		H178.84l-6.794-25.34l-6.795,25.34h-10.848L142.9,153.548z"/>
</g>
<g>
	<path fill="#EEF1F4" d="M92.217,153.491h7.277v37.163h19.243v6.193H92.217V153.491z"/>
	<path fill="#3AC6F4" d="M121.329,184.698v-0.238h7.216v0.357c0,3.871,2.344,6.432,6.044,6.432c3.64,0,6.045-2.561,5.982-6.432
		v-31.326h7.217v31.207c0,8.219-5.551,12.745-13.199,12.745C126.88,197.443,121.329,192.917,121.329,184.698z"/>
</g>
</svg> 
